<?xml version="1.0" encoding="utf-8"?>
<!-- Generator: Adobe Illustrator 25.1.0, SVG Export Plug-In . SVG Version: 6.00 Build 0)  -->
<svg version="1.1" id="Calque_1" xmlns="http://www.w3.org/2000/svg" xmlns:xlink="http://www.w3.org/1999/xlink" x="0px" y="0px"
	 viewBox="0 0 50.5 50" style="enable-background:new 0 0 50.5 50;" xml:space="preserve">
<style type="text/css">
	.st0{fill:#FFF9CF;}
	.st1{fill:#FED72F;}
	.st2{fill:#FFFFFF;}
	.st3{fill:#FAC100;}
	.st4{fill:#55742A;}
</style>
<g>
	<path class="st0" d="M38.4,31.7c0,0,6.6-16.2-5-19S15.4,14,10.6,21s3.4,23.7,14.8,20.3S38.4,31.7,38.4,31.7z"/>
	<g>
		<path class="st4" d="M3.2,37.9c0,0,0-0.1,0-0.3c0-0.1,0-0.3,0-0.5c0-0.2,0-0.3,0-0.5c0-0.1,0-0.2,0-0.3c0-0.1,0-0.3,0-0.5
			c0-0.2,0-0.5,0-0.8c0-0.3,0-0.6,0-1s0-0.7,0-1c0-0.3,0-0.6,0-0.8c0-0.2,0-0.4,0-0.6c0,0,0,0,0.1-0.1c0,0,0.1,0,0.1,0
			c0,0,0.1,0,0.2,0c0.1,0,0.2,0,0.3,0c0.1,0,0.2,0,0.2,0c0.1,0,0.1,0,0.1,0c0.2,0,0.5,0,0.8,0c0.3,0,0.6,0,0.8,0.1
			c0.3,0.1,0.5,0.2,0.7,0.3c0.2,0.2,0.3,0.4,0.4,0.7c0,0,0,0.1,0,0.2c0,0.1,0,0.1,0,0.1v0.2c0,0.2,0,0.3,0,0.5
			c0,0.1-0.1,0.3-0.2,0.4c0,0,0,0.1-0.1,0.1c0,0.1-0.1,0.1-0.1,0.2c0,0.1-0.1,0.1-0.1,0.2c0,0.1-0.1,0.1-0.1,0.1c0,0,0.1,0,0.1,0.1
			c0.1,0,0.1,0.1,0.1,0.1c0,0,0,0,0.1,0c0,0,0.1,0.1,0.1,0.1c0,0,0.1,0.1,0.1,0.1c0,0,0,0,0.1,0.1c0,0,0,0,0.1,0c0,0,0,0,0,0
			c0,0,0,0,0,0c0,0,0,0,0,0c0,0,0,0,0,0c0,0,0,0,0,0.1c0,0,0,0,0,0.1c0,0,0,0,0,0c0,0,0,0,0,0.1c0,0,0,0,0,0.1c0,0,0,0,0,0.1
			c0,0,0,0.1,0,0.1v0v0c0,0,0,0,0,0c0,0,0,0,0,0.1c0,0,0,0,0,0c0,0,0,0,0,0c0,0,0,0,0,0.1c0,0,0,0.1,0,0.1c0,0,0,0.1,0,0.1
			c0,0.1,0,0.1,0,0.2c0,0.1,0,0.1,0,0.2c0,0.1,0,0.1,0,0.1v0v0c0,0,0,0,0,0.1c0,0,0,0.1,0,0.1c0,0,0,0.1,0,0.1c0,0,0,0.1,0,0.1
			c0,0.2-0.1,0.3-0.2,0.5c-0.1,0.2-0.3,0.3-0.4,0.4c-0.2,0.1-0.5,0.2-0.8,0.3c-0.3,0-0.5,0.1-0.8,0.1c-0.1,0-0.2,0-0.3,0
			c-0.2,0-0.3,0-0.5,0c-0.2,0-0.3,0-0.5,0c-0.2,0-0.3,0-0.3,0c0,0-0.1,0-0.1,0c0,0,0,0-0.1,0c-0.1,0-0.1,0-0.1-0.1
			c0-0.1,0-0.1,0-0.2C3.2,38,3.2,38,3.2,37.9C3.2,37.9,3.2,37.9,3.2,37.9L3.2,37.9L3.2,37.9z M4.7,36.9h0.1H5c0,0,0.1,0,0.2,0
			c0.1,0,0.1,0,0.1,0c0.1,0,0.1-0.1,0.2-0.1c0.1,0,0.1-0.1,0.2-0.2c0.1-0.1,0.1-0.1,0.2-0.2C6,36.3,6,36.2,6,36.1c0,0,0-0.1,0-0.1
			c0,0,0-0.1-0.1-0.1c-0.1-0.1-0.2-0.2-0.3-0.3c-0.1-0.1-0.2-0.1-0.4-0.1c0,0-0.1,0-0.1,0s-0.1,0-0.2,0c-0.1,0-0.1,0-0.2,0
			c0,0-0.1,0-0.1,0c0,0,0,0-0.1,0c0,0-0.1,0-0.1,0c0,0.2,0,0.4,0,0.6c0,0.2,0,0.4,0.1,0.6c0,0,0,0,0,0c0,0,0,0,0,0.1L4.7,36.9
			L4.7,36.9z M4.6,33.9c0,0.1,0.1,0.1,0.1,0.1c0,0,0.1,0.1,0.2,0.1H5L5.3,34c0,0,0.1,0,0.1-0.1c0,0,0.1-0.1,0.1-0.1
			c0,0,0.1-0.1,0.1-0.1c0,0,0-0.1,0-0.1c0,0,0,0,0,0c0,0,0,0,0,0c-0.2-0.2-0.3-0.3-0.5-0.4c-0.2-0.1-0.4-0.1-0.6-0.1h0c0,0,0,0,0,0
			c0,0,0,0,0,0v0.2v0.2c0,0,0,0.1,0,0.1c0,0.1,0,0.1,0,0.2c0,0.1,0,0.1,0,0.2C4.6,33.9,4.6,33.9,4.6,33.9z"/>
		<path class="st4" d="M8.4,38.1C8.4,38.1,8.4,38,8.4,38.1C8.4,38,8.4,38,8.4,38.1c0-0.1,0-0.2,0-0.2c0-0.1,0.1-0.1,0.1-0.1
			c0,0,0,0,0-0.1c0,0,0-0.1,0.1-0.2c0-0.1,0-0.1,0.1-0.2c0,0,0-0.1,0-0.1c0,0,0,0,0-0.1c0,0,0-0.1,0-0.1c0,0,0-0.1,0-0.1
			c0,0,0,0,0-0.1c0,0,0,0,0,0c0,0,0-0.1,0-0.1c0,0,0-0.1,0-0.1c0,0,0,0,0-0.1c0,0,0-0.1,0.1-0.2c0-0.1,0.1-0.2,0.1-0.3
			c0-0.1,0.1-0.2,0.1-0.3c0-0.1,0.1-0.2,0.1-0.2c0,0,0-0.1,0.1-0.1c0-0.1,0.1-0.1,0.1-0.1l1.3-3.5c0,0,0,0,0-0.1c0,0,0-0.1,0-0.1
			c0,0,0-0.1,0-0.1c0,0,0-0.1,0-0.1l0,0H11h0.1c0,0,0.1,0,0.2,0c0.1,0,0.2,0,0.3,0c0.1,0,0.2,0,0.3,0c0.1,0,0.1,0,0.2,0
			c0,0,0.1,0,0.1,0c0,0,0.1,0,0.1,0c0,0,0.1,0.1,0.1,0.1c0,0,0.1,0.1,0.1,0.1c0,0,0,0.1,0.1,0.1c0,0,0.1,0.1,0.1,0.1
			c0,0,0,0.1,0.1,0.1c0,0,0,0.1,0,0.1c0,0,0,0.1,0.1,0.2c0,0.1,0.1,0.2,0.1,0.2c0,0.1,0.1,0.2,0.1,0.2C13,32.9,13,33,13,33
			c0,0,0,0,0,0.1c0,0.1,0,0.1,0.1,0.2c0,0.1,0,0.1,0.1,0.2c0,0.1,0,0.1,0,0.1c0.1,0.3,0.2,0.6,0.4,0.8c0.1,0.3,0.3,0.5,0.4,0.8
			c0,0,0,0.1,0.1,0.2c0,0.1,0.1,0.2,0.1,0.3c0.1,0.1,0.1,0.3,0.2,0.4c0.1,0.1,0.1,0.3,0.2,0.4s0.1,0.2,0.1,0.3
			c0,0.1,0.1,0.2,0.1,0.2c0,0,0,0.1,0.1,0.1c0,0.1,0.1,0.1,0.1,0.2c0,0,0,0.1,0.1,0.1c0,0.1,0.1,0.1,0.1,0.2c0,0.1,0.1,0.1,0.1,0.2
			c0,0.1,0,0.1,0.1,0.1v0c0,0,0,0,0,0.1c0,0,0,0-0.1,0c0,0-0.1,0-0.1,0c0,0-0.1,0-0.1,0c0,0-0.1,0-0.1,0c-0.1,0-0.1,0-0.2,0
			s-0.1,0-0.2,0c-0.1,0-0.1,0-0.1,0c-0.1,0-0.1,0-0.2,0s-0.2,0-0.2,0c0,0-0.1,0-0.1,0c0,0-0.1,0-0.1,0l0,0l0,0
			c0-0.1-0.1-0.2-0.1-0.2c0-0.1-0.1-0.1-0.1-0.2c0,0,0,0-0.1-0.1c0-0.1,0-0.1,0-0.1c0-0.1-0.1-0.2-0.1-0.3c0-0.1,0-0.2-0.1-0.2
			c0,0,0,0,0,0c0,0,0,0,0,0c0,0-0.1,0-0.2,0c-0.1,0-0.2,0-0.3,0c-0.1,0-0.2,0-0.3,0c-0.1,0-0.2,0-0.2,0c0,0,0,0-0.1,0
			c0,0-0.1,0-0.1,0c0,0-0.1,0-0.1,0s-0.1,0-0.1,0h-0.2c-0.1,0-0.3,0-0.4,0c-0.1,0-0.3,0-0.4,0.1c-0.1,0-0.2,0.1-0.2,0.1
			c0,0.1-0.1,0.1-0.1,0.2c0,0,0,0,0,0.1c0,0,0,0.1-0.1,0.1c0,0,0,0.1-0.1,0.1c0,0,0,0.1,0,0.1c0,0,0,0,0,0.1c0,0,0,0.1,0,0.1
			c0,0,0,0.1,0,0.1c0,0,0,0.1,0,0.1c0,0.1-0.1,0.2-0.1,0.2c-0.1,0-0.1,0-0.2,0c-0.2,0-0.4,0-0.5-0.1C8.8,38.1,8.6,38.1,8.4,38.1z
			 M11.6,33.7C11.6,33.7,11.6,33.7,11.6,33.7C11.6,33.7,11.6,33.7,11.6,33.7c0,0.1,0,0.1,0,0.1c0,0,0,0.1,0,0.1c0,0,0,0.1,0,0.1
			c0,0,0,0,0,0.1c0,0,0,0,0,0.1c0,0,0,0.1,0,0.1c0,0,0,0.1,0,0.1c0,0,0,0.1,0,0.1c0,0.1-0.1,0.1-0.1,0.3c0,0.1-0.1,0.2-0.1,0.3
			c0,0.1-0.1,0.2-0.1,0.4v0.1h1.3c0,0,0,0,0,0c0,0,0,0,0,0v0c0,0,0-0.1,0-0.2c0-0.1,0-0.1-0.1-0.1c0-0.1-0.1-0.2-0.2-0.3
			c-0.1-0.1-0.1-0.3-0.2-0.4C11.8,34.1,11.8,33.9,11.6,33.7L11.6,33.7z"/>
		<path class="st4" d="M16.4,38.2c0-0.1,0-0.2,0-0.3c0-0.1,0-0.3,0-0.5s0-0.4,0-0.6s0-0.4,0-0.6c0-0.2,0-0.3,0-0.5
			c0-0.1,0-0.3,0-0.3c0,0,0-0.1,0-0.2s0-0.2,0-0.4c0-0.1,0-0.3,0-0.4s0-0.3,0-0.3c0-0.1,0-0.1,0-0.3c0-0.1,0-0.3,0-0.4
			c0-0.1,0-0.3,0-0.4c0-0.1,0-0.2,0-0.3c0,0,0-0.1,0-0.1c0-0.1,0-0.1,0-0.1c0,0,0-0.1,0-0.2s0-0.2,0-0.2c0-0.1,0-0.2,0-0.2
			s0-0.1,0-0.2c0.1,0,0.1,0,0.1,0c0,0,0.1,0,0.1,0h0.1c0,0,0.1,0,0.2,0c0.1,0,0.2,0,0.3,0c0.1,0,0.2,0,0.3,0c0.1,0,0.2,0,0.2,0
			c0.1,0.1,0.1,0.1,0.2,0.2c0.1,0.1,0.1,0.2,0.2,0.3c0.1,0.1,0.1,0.2,0.1,0.3c0,0.1,0.1,0.2,0.1,0.3c0,0,0,0,0.1,0.1
			c0,0.1,0.1,0.1,0.1,0.2c0,0.1,0.1,0.1,0.1,0.2c0,0.1,0,0.1,0.1,0.1c0,0,0,0,0,0.1s0,0.1,0.1,0.1c0,0,0,0.1,0.1,0.1s0,0.1,0,0.1
			l0.2,0.2c0,0,0,0,0,0.1c0,0,0,0.1,0,0.1c0,0,0,0,0,0.1c0,0,0,0.1,0.1,0.1c0,0,0.1,0.1,0.1,0.1c0,0,0,0,0,0.1c0,0,0,0,0,0.1
			c0,0,0,0,0,0c0,0,0,0,0,0.1c0,0,0.1,0.1,0.1,0.1c0,0,0.1,0.1,0.1,0.1c0,0,0,0.1,0,0.1c0,0,0,0,0,0.1c0,0,0,0.1,0.1,0.1
			c0,0,0,0.1,0.1,0.1c0,0,0,0,0.1,0c0,0,0,0,0.1,0.1s0,0.1,0,0.1c0,0,0,0,0.1,0.1c0,0,0.1,0.1,0.1,0.1c0,0,0,0,0,0.1
			c0,0,0,0.1,0.1,0.1c0,0,0,0.1,0.1,0.1c0,0,0,0,0,0.1c0,0,0,0,0,0c0,0,0,0,0,0c0,0,0-0.1,0-0.1c0-0.1,0-0.1,0-0.1v-0.1
			c0-0.2,0-0.4,0-0.6c0-0.2,0-0.4-0.1-0.6v-2.2c0,0,0,0,0-0.1c0,0,0-0.1,0-0.1c0,0,0,0,0.1,0c0,0,0.1,0,0.1,0c0,0,0.1,0,0.1,0
			s0.1,0,0.1,0c0,0,0,0,0.1,0c0,0,0.1,0,0.1,0c0,0,0.1,0,0.1,0c0,0,0,0,0.1,0c0,0,0.1,0,0.1,0c0.1,0,0.1,0,0.2,0c0.1,0,0.1,0,0.2,0
			c0.1,0,0.1,0,0.1,0c0,0,0.1,0.1,0.1,0.1c0,0,0,0.1,0,0.1c0,0,0,0.1,0,0.1c0,0,0,0.1,0,0.1c0,0.1,0,0.2,0,0.3c0,0.2,0,0.3,0,0.5
			c0,0.2,0,0.3,0,0.4c0,0.1,0,0.2,0,0.3c0,0.1,0,0.2,0,0.3c0,0.1,0,0.3,0,0.4s0,0.3,0,0.5s0,0.4,0,0.5s0,0.3,0,0.4
			c0,0.1,0,0.2,0,0.3c0,0.1,0,0.3,0,0.4c0,0.1,0,0.3,0,0.4c0,0,0,0.1,0,0.1c0,0,0,0.1,0,0.1c0,0,0,0.1,0,0.1c0,0,0,0.1,0,0.1
			c0,0,0,0.1,0,0.1c0,0.1,0,0.1,0,0.2c0,0.1,0,0.1,0,0.2c0,0.1,0,0.1,0,0.1c0,0-0.1,0-0.2,0c-0.1,0-0.2,0-0.3,0c-0.1,0-0.2,0-0.3,0
			c-0.1,0-0.1,0-0.2,0h-0.2h-0.2c-0.1,0-0.1,0-0.1-0.1c0,0-0.1-0.1-0.1-0.1c-0.2-0.3-0.3-0.6-0.5-0.9c-0.2-0.3-0.4-0.6-0.6-0.8
			c0,0,0,0-0.1-0.1c0-0.1-0.1-0.1-0.1-0.1c0,0,0,0-0.1-0.1s-0.1-0.1-0.1-0.1c0,0-0.1-0.1-0.1-0.1c0,0-0.1-0.1-0.1-0.1
			c0,0,0,0-0.1-0.1c0,0-0.1-0.1-0.1-0.1c0-0.1-0.1-0.1-0.1-0.1c0,0,0-0.1-0.1-0.1c0,0,0,0-0.1-0.1c0-0.1-0.1-0.1-0.1-0.1
			c0,0,0-0.1-0.1-0.1c0-0.1-0.1-0.1-0.1-0.2c0-0.1-0.1-0.1-0.1-0.2c0-0.1-0.1-0.1-0.1-0.1c0,0,0,0,0-0.1c0,0,0,0,0-0.1
			c0,0,0,0,0,0.1c0,0,0,0,0,0.1v0v0c0,0.4,0,0.7,0,1.1c0,0.4,0,0.7,0,1.1c0,0,0,0,0,0.1c0,0,0,0.1,0,0.1c0,0,0,0.1,0,0.1
			c0,0,0,0.1,0,0.1v0.9c0,0.1,0,0.1,0,0.2c0,0,0,0,0,0c0,0,0,0,0,0v0c0,0,0,0,0,0c0,0,0,0,0,0c-0.1,0-0.2,0-0.4,0
			c-0.1,0-0.2,0-0.4,0h-0.5c0,0-0.1,0-0.1,0C16.5,38.2,16.5,38.2,16.4,38.2z"/>
		<path class="st4" d="M22.9,38.1C22.9,38.1,22.9,38,22.9,38.1C22.9,38,22.9,38,22.9,38.1c0-0.1,0-0.2,0-0.2c0-0.1,0.1-0.1,0.1-0.1
			c0,0,0,0,0-0.1c0,0,0-0.1,0.1-0.2c0-0.1,0-0.1,0.1-0.2c0,0,0-0.1,0-0.1c0,0,0,0,0-0.1c0,0,0-0.1,0-0.1c0,0,0-0.1,0-0.1
			c0,0,0,0,0-0.1c0,0,0,0,0,0c0,0,0-0.1,0-0.1c0,0,0-0.1,0-0.1c0,0,0,0,0-0.1c0,0,0-0.1,0.1-0.2c0-0.1,0.1-0.2,0.1-0.3
			c0-0.1,0.1-0.2,0.1-0.3c0-0.1,0.1-0.2,0.1-0.2c0,0,0-0.1,0.1-0.1c0-0.1,0.1-0.1,0.1-0.1l1.3-3.5c0,0,0,0,0-0.1c0,0,0-0.1,0-0.1
			c0,0,0-0.1,0-0.1c0,0,0-0.1,0-0.1l0,0h0.1h0.1c0,0,0.1,0,0.2,0c0.1,0,0.2,0,0.3,0c0.1,0,0.2,0,0.3,0c0.1,0,0.1,0,0.2,0
			c0,0,0.1,0,0.1,0c0,0,0.1,0,0.1,0c0,0,0.1,0.1,0.1,0.1c0,0,0.1,0.1,0.1,0.1c0,0,0,0.1,0.1,0.1c0,0,0.1,0.1,0.1,0.1
			c0,0,0,0.1,0.1,0.1c0,0,0,0.1,0,0.1c0,0,0,0.1,0.1,0.2c0,0.1,0.1,0.2,0.1,0.2c0,0.1,0.1,0.2,0.1,0.2c0,0.1,0.1,0.1,0.1,0.1
			c0,0,0,0,0,0.1s0,0.1,0.1,0.2c0,0.1,0,0.1,0.1,0.2c0,0.1,0,0.1,0,0.1c0.1,0.3,0.2,0.6,0.4,0.8c0.1,0.3,0.3,0.5,0.4,0.8
			c0,0,0,0.1,0.1,0.2c0,0.1,0.1,0.2,0.1,0.3c0.1,0.1,0.1,0.3,0.2,0.4c0.1,0.1,0.1,0.3,0.2,0.4s0.1,0.2,0.1,0.3
			c0,0.1,0.1,0.2,0.1,0.2c0,0,0,0.1,0.1,0.1c0,0.1,0.1,0.1,0.1,0.2c0,0,0,0.1,0.1,0.1c0,0.1,0.1,0.1,0.1,0.2c0,0.1,0.1,0.1,0.1,0.2
			s0,0.1,0.1,0.1v0c0,0,0,0,0,0.1c0,0,0,0-0.1,0c0,0-0.1,0-0.1,0c0,0-0.1,0-0.1,0c0,0-0.1,0-0.1,0c-0.1,0-0.1,0-0.2,0s-0.1,0-0.2,0
			c-0.1,0-0.1,0-0.1,0c-0.1,0-0.1,0-0.2,0s-0.2,0-0.2,0c0,0-0.1,0-0.1,0c0,0-0.1,0-0.1,0l0,0l0,0c0-0.1-0.1-0.2-0.1-0.2
			c0-0.1-0.1-0.1-0.1-0.2c0,0,0,0-0.1-0.1c0-0.1,0-0.1,0-0.1c0-0.1-0.1-0.2-0.1-0.3c0-0.1,0-0.2-0.1-0.2c0,0,0,0,0,0c0,0,0,0,0,0
			c0,0-0.1,0-0.2,0c-0.1,0-0.2,0-0.3,0s-0.2,0-0.3,0c-0.1,0-0.2,0-0.2,0c0,0,0,0-0.1,0c0,0-0.1,0-0.1,0c0,0-0.1,0-0.1,0
			c0,0-0.1,0-0.1,0h-0.2c-0.1,0-0.3,0-0.4,0c-0.1,0-0.3,0-0.4,0.1c-0.1,0-0.2,0.1-0.2,0.1c0,0.1-0.1,0.1-0.1,0.2c0,0,0,0,0,0.1
			c0,0,0,0.1-0.1,0.1c0,0,0,0.1-0.1,0.1c0,0,0,0.1,0,0.1c0,0,0,0,0,0.1c0,0,0,0.1,0,0.1c0,0,0,0.1,0,0.1c0,0,0,0.1,0,0.1
			c0,0.1-0.1,0.2-0.1,0.2c-0.1,0-0.1,0-0.2,0c-0.2,0-0.4,0-0.5-0.1C23.3,38.1,23.1,38.1,22.9,38.1z M26.2,33.7
			C26.2,33.7,26.2,33.7,26.2,33.7C26.2,33.7,26.1,33.7,26.2,33.7c0,0.1,0,0.1,0,0.1c0,0,0,0.1,0,0.1c0,0,0,0.1,0,0.1c0,0,0,0,0,0.1
			c0,0,0,0,0,0.1c0,0,0,0.1,0,0.1c0,0,0,0.1,0,0.1c0,0,0,0.1,0,0.1c0,0.1-0.1,0.1-0.1,0.3c0,0.1-0.1,0.2-0.1,0.3
			c0,0.1-0.1,0.2-0.1,0.4v0.1h1.3c0,0,0,0,0,0c0,0,0,0,0,0v0c0,0,0-0.1,0-0.2c0-0.1,0-0.1-0.1-0.1c0-0.1-0.1-0.2-0.2-0.3
			c-0.1-0.1-0.1-0.3-0.2-0.4C26.4,34.1,26.3,33.9,26.2,33.7L26.2,33.7z"/>
		<path class="st4" d="M31,38.2c0-0.1,0-0.2,0-0.3c0-0.1,0-0.3,0-0.5s0-0.4,0-0.6s0-0.4,0-0.6c0-0.2,0-0.3,0-0.5c0-0.1,0-0.3,0-0.3
			c0,0,0-0.1,0-0.2s0-0.2,0-0.4c0-0.1,0-0.3,0-0.4s0-0.3,0-0.3c0-0.1,0-0.1,0-0.3c0-0.1,0-0.3,0-0.4c0-0.1,0-0.3,0-0.4
			c0-0.1,0-0.2,0-0.3c0,0,0-0.1,0-0.1c0-0.1,0-0.1,0-0.1c0,0,0-0.1,0-0.2c0-0.1,0-0.2,0-0.2c0-0.1,0-0.2,0-0.2c0-0.1,0-0.1,0-0.2
			c0.1,0,0.1,0,0.1,0c0,0,0.1,0,0.1,0h0.1c0,0,0.1,0,0.2,0c0.1,0,0.2,0,0.3,0c0.1,0,0.2,0,0.3,0c0.1,0,0.2,0,0.2,0
			c0.1,0.1,0.1,0.1,0.2,0.2c0.1,0.1,0.1,0.2,0.2,0.3c0.1,0.1,0.1,0.2,0.1,0.3c0,0.1,0.1,0.2,0.1,0.3c0,0,0,0,0.1,0.1
			c0,0.1,0.1,0.1,0.1,0.2c0,0.1,0.1,0.1,0.1,0.2c0,0.1,0,0.1,0.1,0.1c0,0,0,0,0,0.1c0,0,0,0.1,0.1,0.1c0,0,0,0.1,0.1,0.1
			c0,0,0,0.1,0,0.1l0.2,0.2c0,0,0,0,0,0.1s0,0.1,0,0.1c0,0,0,0,0,0.1s0,0.1,0.1,0.1c0,0,0.1,0.1,0.1,0.1c0,0,0,0,0,0.1
			c0,0,0,0,0,0.1c0,0,0,0,0,0c0,0,0,0,0,0.1c0,0,0.1,0.1,0.1,0.1c0,0,0.1,0.1,0.1,0.1c0,0,0,0.1,0,0.1c0,0,0,0,0,0.1
			c0,0,0,0.1,0.1,0.1c0,0,0,0.1,0.1,0.1c0,0,0,0,0.1,0c0,0,0,0,0.1,0.1s0,0.1,0,0.1c0,0,0,0,0.1,0.1c0,0,0.1,0.1,0.1,0.1
			c0,0,0,0,0,0.1c0,0,0,0.1,0.1,0.1c0,0,0,0.1,0.1,0.1c0,0,0,0,0,0.1c0,0,0,0,0,0c0,0,0,0,0,0c0,0,0-0.1,0-0.1c0-0.1,0-0.1,0-0.1
			v-0.1c0-0.2,0-0.4,0-0.6c0-0.2,0-0.4-0.1-0.6v-2.2c0,0,0,0,0-0.1c0,0,0-0.1,0-0.1c0,0,0,0,0.1,0s0.1,0,0.1,0c0,0,0.1,0,0.1,0
			c0,0,0.1,0,0.1,0c0,0,0,0,0.1,0c0,0,0.1,0,0.1,0c0,0,0.1,0,0.1,0c0,0,0,0,0.1,0c0,0,0.1,0,0.1,0c0.1,0,0.1,0,0.2,0
			c0.1,0,0.1,0,0.2,0c0.1,0,0.1,0,0.1,0c0,0,0.1,0.1,0.1,0.1c0,0,0,0.1,0,0.1c0,0,0,0.1,0,0.1c0,0,0,0.1,0,0.1c0,0.1,0,0.2,0,0.3
			c0,0.2,0,0.3,0,0.5c0,0.2,0,0.3,0,0.4c0,0.1,0,0.2,0,0.3c0,0.1,0,0.2,0,0.3c0,0.1,0,0.3,0,0.4s0,0.3,0,0.5s0,0.4,0,0.5
			s0,0.3,0,0.4c0,0.1,0,0.2,0,0.3c0,0.1,0,0.3,0,0.4c0,0.1,0,0.3,0,0.4c0,0,0,0.1,0,0.1c0,0,0,0.1,0,0.1c0,0,0,0.1,0,0.1
			c0,0,0,0.1,0,0.1c0,0,0,0.1,0,0.1c0,0.1,0,0.1,0,0.2c0,0.1,0,0.1,0,0.2c0,0.1,0,0.1,0,0.1c0,0-0.1,0-0.2,0c-0.1,0-0.2,0-0.3,0
			c-0.1,0-0.2,0-0.3,0c-0.1,0-0.1,0-0.2,0h-0.2h-0.2c-0.1,0-0.1,0-0.1-0.1c0,0-0.1-0.1-0.1-0.1c-0.2-0.3-0.3-0.6-0.5-0.9
			c-0.2-0.3-0.4-0.6-0.6-0.8c0,0,0,0-0.1-0.1c0-0.1-0.1-0.1-0.1-0.1c0,0,0,0-0.1-0.1s-0.1-0.1-0.1-0.1c0,0-0.1-0.1-0.1-0.1
			c0,0-0.1-0.1-0.1-0.1c0,0,0,0-0.1-0.1c0,0-0.1-0.1-0.1-0.1s-0.1-0.1-0.1-0.1c0,0,0-0.1-0.1-0.1c0,0,0,0-0.1-0.1
			c0-0.1-0.1-0.1-0.1-0.1c0,0,0-0.1-0.1-0.1c0-0.1-0.1-0.1-0.1-0.2c0-0.1-0.1-0.1-0.1-0.2c0-0.1-0.1-0.1-0.1-0.1c0,0,0,0,0-0.1
			c0,0,0,0,0-0.1c0,0,0,0,0,0.1c0,0,0,0,0,0.1v0v0c0,0.4,0,0.7,0,1.1c0,0.4,0,0.7,0,1.1c0,0,0,0,0,0.1c0,0,0,0.1,0,0.1
			c0,0,0,0.1,0,0.1c0,0,0,0.1,0,0.1v0.9c0,0.1,0,0.1,0,0.2c0,0,0,0,0,0c0,0,0,0,0,0v0c0,0,0,0,0,0c0,0,0,0,0,0c-0.1,0-0.2,0-0.4,0
			c-0.1,0-0.2,0-0.4,0h-0.5c0,0-0.1,0-0.1,0C31.1,38.2,31,38.2,31,38.2z"/>
		<path class="st4" d="M37.9,35.2c0-0.1,0-0.2,0-0.3c0-0.2,0-0.3,0-0.5c0-0.2,0-0.4,0-0.6c0-0.2,0-0.4,0-0.6c0-0.2,0-0.4,0-0.5
			c0-0.2,0-0.3,0-0.3v-0.3v-0.3c0,0,0-0.1,0-0.1c0,0,0.1-0.1,0.1-0.1h0.5c0,0,0,0,0.1,0c0,0,0.1,0,0.1,0c0,0,0.1,0,0.1,0
			c0,0,0.1,0,0.1,0c0,0,0.1,0,0.2,0c0.1,0,0.2,0,0.3,0s0.2,0,0.3,0c0.1,0,0.1,0,0.2,0h0.8c0,0,0.1,0,0.2,0c0.1,0,0.2,0,0.3,0
			c0.1,0,0.2,0,0.3,0c0.1,0,0.1,0,0.2,0c0,0,0,0,0,0c0,0,0,0,0,0c0,0,0,0.1,0.1,0.1c0,0.1,0,0.1,0,0.1v0.9c0,0,0,0.1-0.1,0.1
			s-0.1,0.1-0.1,0.1l-1.9,0.1c0,0,0,0-0.1,0c0,0,0,0,0,0c0,0,0,0,0,0.1c0,0,0,0.1,0,0.1c0,0,0,0,0,0.1c0,0,0,0.1,0,0.1
			c0,0,0,0.1,0,0.1c0,0,0,0,0,0v0.2v0.2l0.1,0.1h1.3l0.6,0.1c0,0,0.1,0.1,0.1,0.1s0,0.2,0.1,0.3c0,0.1,0,0.2,0,0.3
			c0,0.1,0,0.1,0,0.2c0,0.1,0,0.2-0.1,0.3C41.5,35,41.4,35,41.4,35c-0.1,0-0.2,0-0.3,0s-0.2,0-0.3,0c0,0-0.1,0-0.3,0
			c-0.1,0-0.3,0-0.4,0c-0.1,0-0.3,0-0.4,0c-0.1,0-0.2,0-0.3,0c0,0,0,0,0,0.1c0,0,0,0.1,0,0.1s0,0.1,0,0.1c0,0,0,0.1,0,0.1
			c0,0,0,0.1,0,0.1c0,0.1,0,0.1,0,0.2c0,0,0,0,0,0.1c0,0,0,0.1,0,0.1c0,0,0,0.1,0,0.1c0,0,0,0.1,0,0.1c0,0.1,0,0.1,0,0.1
			c0,0,0,0.1,0,0.1c0,0,0,0,0.1,0h2.1c0,0,0,0,0.1,0c0,0,0.1,0,0.1,0.1V37v0.3c0,0,0,0.1,0,0.1c0,0.1,0,0.1,0,0.2s0,0.1,0,0.2
			c0,0.1,0,0.1,0,0.1c0,0.1-0.1,0.1-0.1,0.1c0,0-0.1,0-0.2,0c0,0-0.1,0-0.2,0c-0.1,0-0.2,0-0.3,0c-0.1,0-0.2,0-0.3,0
			c-0.1,0-0.1,0-0.2,0h-0.2c-0.1,0-0.3,0-0.4,0c-0.1,0-0.3,0-0.4,0c-0.1,0-0.1,0-0.1,0c0,0-0.1,0-0.1,0c-0.2,0-0.3,0-0.5,0
			c-0.2,0-0.3,0-0.5-0.1c0,0,0,0-0.1,0c0,0-0.1,0-0.1,0c0,0,0,0-0.1,0c0,0,0,0,0,0c0,0,0,0-0.1,0c0,0-0.1,0-0.1-0.1l0-2.5V35.2z"/>
		<path class="st4" d="M43.1,36.6C43.1,36.6,43.1,36.6,43.1,36.6C43.1,36.5,43.2,36.5,43.1,36.6c0.1-0.1,0.1-0.1,0.1-0.2
			c0,0,0,0,0.1-0.1c0,0,0.1-0.1,0.1-0.1s0.1-0.1,0.1-0.1c0,0,0.1-0.1,0.1-0.1c0,0,0,0,0.1,0c0,0,0.1,0,0.1-0.1c0,0,0.1,0,0.1-0.1
			c0,0,0.1,0,0.1,0c0,0,0,0,0,0c0,0,0,0,0,0h0h0c0.2,0.1,0.3,0.3,0.4,0.4s0.3,0.3,0.4,0.4c0.1,0.1,0.1,0.1,0.2,0.1
			c0.1,0,0.1,0,0.2,0c0.1,0,0.1,0,0.2,0c0.1,0,0.1,0,0.1-0.1v-0.2c0-0.2-0.1-0.4-0.2-0.6s-0.2-0.3-0.4-0.5c0,0-0.1-0.1-0.1-0.1
			c-0.1-0.1-0.1-0.1-0.2-0.2s-0.2-0.1-0.2-0.2c-0.1-0.1-0.2-0.1-0.2-0.2s-0.1-0.1-0.2-0.2c-0.1,0-0.1-0.1-0.1-0.1
			c-0.1-0.1-0.2-0.2-0.3-0.3c-0.1-0.1-0.2-0.3-0.3-0.4c-0.1-0.1-0.1-0.3-0.2-0.4c0-0.2-0.1-0.3-0.1-0.5c0-0.2,0-0.4,0.1-0.5
			s0.2-0.3,0.3-0.5c0,0,0,0,0.1,0c0,0,0,0,0.1-0.1c0.2-0.2,0.4-0.3,0.6-0.4c0.2-0.1,0.5-0.2,0.7-0.2c0.2,0,0.4,0,0.6,0.1
			c0.2,0,0.3,0.1,0.5,0.2c0.1,0.1,0.3,0.2,0.4,0.3c0.1,0.1,0.3,0.3,0.4,0.4c0.1,0.1,0.1,0.1,0.1,0.2c0,0,0,0.1,0,0.2v0.1
			c0,0,0,0-0.1,0.1c0,0-0.1,0.1-0.1,0.1c0,0-0.1,0.1-0.1,0.1c-0.1,0.1-0.1,0.1-0.2,0.2c-0.1,0.1-0.1,0.1-0.2,0.2
			c-0.1,0.1-0.1,0.1-0.1,0.1h-0.1c0,0-0.1,0-0.1,0c0,0,0,0,0,0c0,0,0,0,0-0.1c0,0,0-0.1-0.1-0.1c0,0,0-0.1-0.1-0.1c0,0,0,0,0-0.1
			c0,0,0,0-0.1-0.1s-0.1-0.1-0.1-0.1c0,0-0.1-0.1-0.1-0.1c0,0-0.1-0.1-0.1-0.1c-0.1,0-0.1-0.1-0.2-0.1c-0.1,0-0.2,0-0.2,0
			c-0.1,0-0.2,0-0.2,0c-0.1,0-0.1,0-0.1,0.1c0,0-0.1,0.1-0.1,0.1c0,0.1,0,0.1,0,0.2v0c0,0,0,0.1,0.1,0.2s0.1,0.1,0.1,0.1l0.5,0.5
			c0,0,0,0,0.1,0c0,0,0.1,0,0.1,0.1c0,0,0.1,0.1,0.1,0.1s0,0,0.1,0c0.2,0.2,0.4,0.3,0.5,0.5c0.2,0.2,0.3,0.4,0.5,0.6
			c0.1,0.1,0.1,0.3,0.2,0.4c0.1,0.1,0.1,0.2,0.2,0.3c0,0.1,0.1,0.2,0.1,0.3c0,0.1,0,0.3,0,0.4v0.3c0,0.1-0.1,0.2-0.1,0.3
			c0,0.1-0.1,0.2-0.2,0.2c0,0-0.1,0-0.1,0.1c0,0-0.1,0.1-0.2,0.1c-0.1,0-0.1,0.1-0.2,0.1s-0.1,0.1-0.1,0.1c0,0-0.1,0-0.1,0.1
			c-0.1,0-0.1,0.1-0.1,0.1c0,0-0.1,0-0.2,0.1c-0.1,0-0.1,0.1-0.1,0.1c0,0-0.1,0-0.1,0c-0.1,0-0.1,0-0.2,0s-0.1,0-0.2,0
			c-0.1,0-0.1,0-0.2,0h-0.1c-0.1,0-0.2,0-0.3,0s-0.2,0-0.3-0.1c-0.2-0.1-0.4-0.2-0.6-0.3c-0.2-0.1-0.3-0.3-0.5-0.5c0,0,0,0-0.1-0.1
			c0,0-0.1-0.1-0.1-0.1c0,0-0.1-0.1-0.1-0.1c0,0,0,0,0-0.1c0,0,0,0,0-0.1c0-0.1,0-0.1,0-0.1c0,0,0,0,0-0.1
			C43.2,36.7,43.1,36.7,43.1,36.6C43.1,36.6,43.1,36.6,43.1,36.6L43.1,36.6L43.1,36.6z"/>
	</g>
	<g>
		<path d="M10.6,44.2c0,0-0.1-0.1-0.1-0.1v-3c0,0,0-0.1,0-0.1c0,0,0.1,0,0.1,0h2.2c0,0,0.1,0,0.1,0c0,0,0,0.1,0,0.1c0,0,0,0.1,0,0.1
			c0,0-0.1,0-0.1,0h-2v1.1h1.8c0,0,0.1,0,0.1,0c0,0,0,0.1,0,0.1c0,0,0,0.1,0,0.1c0,0-0.1,0-0.1,0h-1.8v1.2h2c0,0,0.1,0,0.1,0
			c0,0,0,0.1,0,0.1c0,0,0,0.1,0,0.1c0,0-0.1,0-0.1,0h-2.2C10.7,44.2,10.6,44.2,10.6,44.2z"/>
		<path d="M15.6,44.2c0,0,0-0.1,0-0.1c0,0,0-0.1,0-0.1l1.3-1.5l-1.2-1.4c0,0,0-0.1,0-0.1c0,0,0-0.1,0.1-0.1c0,0,0.1,0,0.1,0
			c0.1,0,0.1,0,0.1,0.1l1.1,1.4l1.2-1.4c0,0,0.1-0.1,0.1-0.1c0,0,0.1,0,0.1,0c0,0,0,0.1,0,0.1c0,0,0,0.1,0,0.1l-1.2,1.4l1.2,1.5
			c0,0,0,0.1,0,0.1c0,0,0,0.1,0,0.1c0,0-0.1,0-0.1,0c-0.1,0-0.1,0-0.1-0.1L17,42.8l-1.2,1.4c0,0-0.1,0.1-0.1,0.1
			C15.6,44.2,15.6,44.2,15.6,44.2z"/>
		<path d="M21.3,44.2c0,0,0-0.1,0-0.1v-3c0-0.1,0-0.1,0-0.1c0,0,0.1,0,0.1-0.1c0.1,0,0.2,0,0.3,0c0.6,0,1.1,0.1,1.4,0.3
			c0.3,0.2,0.5,0.4,0.5,0.8c0,0.3-0.1,0.5-0.3,0.7c-0.2,0.2-0.5,0.3-0.8,0.4c-0.3,0.1-0.6,0.1-0.9,0.1v1c0,0,0,0.1,0,0.1
			c0,0-0.1,0-0.1,0C21.4,44.2,21.3,44.2,21.3,44.2z M22.3,42.7c0.3,0,0.5-0.1,0.7-0.3c0.2-0.1,0.3-0.3,0.3-0.5
			c0-0.2-0.1-0.4-0.4-0.5c-0.3-0.1-0.6-0.2-1.1-0.2c-0.1,0-0.2,0-0.2,0v1.6C21.8,42.8,22,42.7,22.3,42.7z"/>
		<path d="M26.6,44c-0.2-0.1-0.3-0.3-0.5-0.6C26,43.3,26,43,26,42.7c0-0.3,0.1-0.6,0.2-0.9c0.1-0.3,0.3-0.5,0.6-0.7
			c0.2-0.2,0.5-0.2,0.8-0.2c0.3,0,0.5,0.1,0.7,0.2c0.2,0.1,0.3,0.3,0.5,0.6c0.1,0.2,0.2,0.5,0.2,0.8c0,0.3-0.1,0.6-0.2,0.9
			c-0.1,0.3-0.3,0.5-0.6,0.7c-0.2,0.2-0.5,0.2-0.8,0.2C27,44.2,26.8,44.2,26.6,44z M27.9,43.7c0.2-0.1,0.3-0.3,0.4-0.5
			c0.1-0.2,0.2-0.5,0.2-0.7c0-0.2,0-0.5-0.1-0.7c-0.1-0.2-0.2-0.3-0.4-0.4c-0.1-0.1-0.3-0.2-0.5-0.2c-0.2,0-0.4,0.1-0.6,0.2
			c-0.2,0.1-0.3,0.3-0.4,0.5c-0.1,0.2-0.2,0.5-0.2,0.8c0,0.3,0,0.5,0.1,0.7c0.1,0.2,0.2,0.3,0.4,0.4c0.1,0.1,0.3,0.2,0.5,0.2
			C27.5,43.9,27.7,43.9,27.9,43.7z"/>
		<path d="M31.6,44.2c0,0,0-0.1,0-0.1v-3c0-0.1,0-0.1,0-0.1c0,0,0.1,0,0.1-0.1c0.1,0,0.1,0,0.3,0h0.1c0.6,0,1,0.1,1.3,0.3
			c0.3,0.2,0.5,0.4,0.5,0.8c0,0.4-0.3,0.8-0.9,1c0.2,0.1,0.3,0.2,0.5,0.4c0.2,0.2,0.4,0.4,0.5,0.7c0,0,0,0,0,0.1c0,0,0,0.1,0,0.1
			c0,0-0.1,0-0.1,0c-0.1,0-0.1,0-0.1-0.1c-0.5-0.8-0.9-1.1-1.4-1.1c-0.1,0-0.3,0-0.5,0v1c0,0,0,0.1,0,0.1c0,0-0.1,0-0.1,0
			C31.6,44.2,31.6,44.2,31.6,44.2z M32.6,42.7c0.3-0.1,0.5-0.2,0.7-0.3c0.2-0.1,0.3-0.3,0.3-0.5c0-0.2-0.1-0.4-0.4-0.5
			c-0.3-0.1-0.6-0.2-1.1-0.2c-0.1,0-0.2,0-0.2,0v1.6C32.1,42.8,32.4,42.7,32.6,42.7z"/>
		<path d="M37.4,44.2c0,0,0-0.1,0-0.1v-2.9h-1c0,0-0.1,0-0.1,0c0,0,0-0.1,0-0.1s0-0.1,0-0.1c0,0,0.1,0,0.1,0h2.3c0,0,0.1,0,0.1,0
			c0,0,0,0.1,0,0.1c0,0,0,0.1,0,0.1c0,0-0.1,0-0.1,0h-1v2.9c0,0,0,0.1,0,0.1c0,0-0.1,0-0.1,0C37.5,44.2,37.5,44.2,37.4,44.2z"/>
	</g>
	<g>
		<path class="st3" d="M9.8,5.8c0,0,4,6.6,7.4,8.9s11,6.8,17.9,3.4s6.5-4.9,7.3-4.5c0.8,0.3,0.9,2.1-0.5,6.2c-1,2.9-5.4,9.4-14.9,9
			c-9.5-0.4-14.4-6.2-16.1-9.9s-1.4-8.8-1.4-8.8l-3-2.8L9.8,5.8z"/>
		<g>
			<path class="st2" d="M12.3,13.3c1.5,2,3.3,3.8,5.2,5.5c1.9,1.6,4.1,3,6.5,3.8c2.4,0.8,5,1,7.4,0.4c1.2-0.3,2.4-0.8,3.5-1.5
				C36,20.8,37,20,38,19.2c-1.8,1.7-4,3.2-6.5,3.9c-2.5,0.7-5.1,0.5-7.5-0.3c-2.4-0.9-4.6-2.3-6.5-3.9
				C15.5,17.2,13.8,15.4,12.3,13.3z"/>
		</g>
	</g>
</g>
</svg>
