<?xml version="1.0" encoding="utf-8"?>
<!-- Generator: Adobe Illustrator 25.1.0, SVG Export Plug-In . SVG Version: 6.00 Build 0)  -->
<svg version="1.1" id="Calque_1" xmlns="http://www.w3.org/2000/svg" xmlns:xlink="http://www.w3.org/1999/xlink" x="0px" y="0px"
	 viewBox="0 0 194.3 171.1" style="enable-background:new 0 0 194.3 171.1;" xml:space="preserve">
<style type="text/css">
	.st0{fill:#FFF9CF;}
	.st1{fill:#FED72F;}
	.st2{fill:#FFFFFF;}
	.st3{fill:#FAC100;}
	.st4{fill:#55742A;}
	.st5{font-family:'KGHAPPYSolid';}
	.st6{font-size:32.4993px;}
</style>
<path class="st0" d="M151.7,113.3c0,0,26.3-64.9-19.9-76S60,42.6,40.7,70.6s13.4,94.7,59,81.2C145.3,138.4,151.7,113.3,151.7,113.3z
	"/>
<text transform="matrix(1 0 0 1 7.2703 138.8635)" class="st4 st5 st6">BANANES</text>
<g>
	<path d="M40.8,163.2c-0.1-0.1-0.2-0.3-0.2-0.5v-11.9c0-0.2,0.1-0.3,0.2-0.4c0.1-0.1,0.3-0.2,0.5-0.2h8.7c0.2,0,0.3,0.1,0.5,0.2
		s0.2,0.3,0.2,0.5c0,0.2-0.1,0.3-0.2,0.4c-0.1,0.1-0.3,0.2-0.5,0.2h-8v4.4h7.1c0.2,0,0.3,0.1,0.5,0.2c0.1,0.1,0.2,0.3,0.2,0.4
		s-0.1,0.3-0.2,0.5s-0.3,0.2-0.5,0.2h-7.1v5h8c0.2,0,0.3,0.1,0.5,0.2s0.2,0.3,0.2,0.4c0,0.2-0.1,0.3-0.2,0.5
		c-0.1,0.1-0.3,0.2-0.5,0.2h-8.6C41.1,163.4,40.9,163.4,40.8,163.2z"/>
	<path d="M60.6,163.4c-0.1-0.1-0.2-0.3-0.2-0.4c0-0.1,0-0.3,0.1-0.4l5.1-5.8l-4.7-5.6c-0.1-0.2-0.2-0.3-0.2-0.4
		c0-0.2,0.1-0.3,0.2-0.4c0.1-0.1,0.3-0.2,0.5-0.2c0.2,0,0.4,0.1,0.5,0.2l4.4,5.4l4.7-5.4c0.1-0.1,0.3-0.2,0.5-0.2
		c0.2,0,0.3,0.1,0.5,0.2c0.1,0.1,0.2,0.3,0.2,0.4c0,0.1-0.1,0.3-0.2,0.4l-4.9,5.6l4.8,5.8c0.1,0.1,0.1,0.2,0.1,0.4
		c0,0.2-0.1,0.3-0.2,0.4c-0.1,0.1-0.3,0.2-0.5,0.2c-0.2,0-0.4-0.1-0.5-0.2l-4.7-5.6l-4.9,5.6c-0.1,0.1-0.3,0.2-0.5,0.2
		C60.9,163.6,60.8,163.5,60.6,163.4z"/>
	<path d="M83.6,163.4c-0.1-0.1-0.2-0.3-0.2-0.4V151c0-0.2,0-0.4,0.1-0.5c0.1-0.1,0.2-0.2,0.4-0.2c0.2-0.1,0.6-0.1,1.1-0.1
		c2.6,0,4.5,0.3,5.7,1c1.3,0.7,1.9,1.7,1.9,3c0,1.1-0.4,2-1.3,2.8c-0.9,0.7-1.9,1.2-3.2,1.5c-1.2,0.3-2.4,0.5-3.5,0.5v4
		c0,0.2-0.1,0.3-0.2,0.4c-0.1,0.1-0.3,0.2-0.5,0.2C83.9,163.6,83.7,163.5,83.6,163.4z M87.5,157.3c1-0.2,1.9-0.6,2.7-1.1
		c0.8-0.5,1.2-1.2,1.2-2.1c0-0.9-0.5-1.6-1.6-2.1c-1-0.5-2.5-0.7-4.4-0.7c-0.4,0-0.6,0-0.7,0v6.3C85.5,157.6,86.4,157.5,87.5,157.3z
		"/>
	<path d="M104.8,162.8c-0.8-0.5-1.4-1.3-1.8-2.2c-0.4-0.9-0.7-2-0.7-3.2c0-1.3,0.3-2.5,0.8-3.6c0.5-1.1,1.3-2,2.2-2.7
		c0.9-0.7,1.9-1,3-1c1,0,1.9,0.3,2.7,0.8c0.8,0.5,1.4,1.3,1.8,2.2c0.4,0.9,0.7,2,0.7,3.2c0,1.3-0.3,2.5-0.8,3.6s-1.3,2-2.2,2.6
		c-0.9,0.7-1.9,1-3,1C106.5,163.6,105.6,163.3,104.8,162.8z M109.9,161.5c0.7-0.5,1.3-1.3,1.7-2.2c0.4-0.9,0.6-1.9,0.6-3
		c0-1-0.2-1.9-0.5-2.6s-0.8-1.4-1.4-1.8c-0.6-0.4-1.3-0.6-2-0.6c-0.8,0-1.6,0.3-2.3,0.8c-0.7,0.5-1.3,1.3-1.7,2.2
		c-0.4,0.9-0.6,1.9-0.6,3c0,1,0.2,1.9,0.5,2.6s0.8,1.3,1.4,1.7c0.6,0.4,1.2,0.6,2,0.6C108.4,162.3,109.2,162.1,109.9,161.5z"/>
	<path d="M124.6,163.4c-0.1-0.1-0.2-0.3-0.2-0.4V151c0-0.2,0-0.4,0.1-0.6c0.1-0.1,0.2-0.2,0.4-0.2c0.2,0,0.6-0.1,1.1-0.1h0.6
		c2.3,0,4.1,0.4,5.3,1.1c1.2,0.7,1.9,1.7,1.9,3c0,1.7-1.2,3-3.7,3.9c0.6,0.4,1.4,1,2.1,1.7s1.4,1.7,2,2.8c0.1,0.1,0.1,0.2,0.1,0.3
		c0,0.2-0.1,0.3-0.2,0.4c-0.1,0.1-0.3,0.2-0.5,0.2c-0.2,0-0.4-0.1-0.6-0.4c-1.9-3-3.8-4.6-5.5-4.6c-0.5,0-1.1,0.1-1.9,0.2v4.1
		c0,0.2-0.1,0.3-0.2,0.4c-0.1,0.1-0.3,0.2-0.5,0.2C124.9,163.6,124.8,163.5,124.6,163.4z M128.9,157.2c1-0.2,1.9-0.6,2.6-1.1
		c0.7-0.5,1-1.1,1-1.9c0-0.9-0.5-1.6-1.6-2.1s-2.5-0.7-4.4-0.7c-0.4,0-0.7,0-0.9,0v6.2C126.8,157.6,127.9,157.4,128.9,157.2z"/>
	<path d="M148.1,163.4c-0.1-0.1-0.2-0.3-0.2-0.4v-11.5H144c-0.2,0-0.3-0.1-0.5-0.2s-0.2-0.3-0.2-0.4s0.1-0.3,0.2-0.4
		c0.1-0.1,0.3-0.2,0.5-0.2h9c0.2,0,0.3,0.1,0.5,0.2s0.2,0.3,0.2,0.5c0,0.2-0.1,0.3-0.2,0.4s-0.3,0.2-0.5,0.2h-3.9v11.5
		c0,0.2-0.1,0.3-0.2,0.4c-0.1,0.1-0.3,0.2-0.5,0.2C148.3,163.6,148.2,163.5,148.1,163.4z"/>
</g>
<g>
	<path class="st3" d="M37.5,9.7c0,0,15.9,26.3,29.6,35.7s44,27.3,71.5,13.4s26-19.4,29.1-18.1s3.7,8.3-2.2,24.8
		c-4.2,11.7-21.6,37.4-59.4,35.9C68.3,100,48.5,76.9,41.9,62.1S36.2,27,36.2,27l-12-11.1L37.5,9.7z"/>
	<g>
		<path class="st2" d="M47.7,39.9c3,4,6.4,7.9,9.9,11.5c3.5,3.6,7.2,7.1,11.1,10.3c7.8,6.4,16.4,11.9,25.9,15.1
			c4.8,1.6,9.7,2.7,14.7,2.9c2.5,0.2,5,0,7.5-0.1l3.7-0.6c0.6-0.1,1.2-0.2,1.8-0.4l1.8-0.4c0.6-0.2,1.2-0.3,1.8-0.5l1.8-0.6l1.8-0.6
			c0.6-0.2,1.2-0.4,1.8-0.7l3.4-1.6c0.6-0.2,1.1-0.6,1.7-0.9l1.6-1c2.2-1.2,4.2-2.7,6.3-4.2c1.1-0.7,2-1.6,3-2.4l2.9-2.4l-2.8,2.5
			c-1,0.8-1.9,1.7-2.9,2.4c-2,1.5-4,3.1-6.2,4.4l-1.6,1c-0.5,0.3-1.1,0.7-1.7,0.9l-3.4,1.7c-0.6,0.3-1.2,0.5-1.8,0.7l-1.8,0.7
			l-1.8,0.7c-0.6,0.2-1.2,0.3-1.8,0.5l-1.8,0.5c-0.6,0.2-1.2,0.3-1.9,0.4l-3.8,0.6c-2.5,0.2-5.1,0.4-7.6,0.2
			c-5.1-0.3-10.1-1.3-15-2.9c-4.8-1.7-9.4-3.9-13.8-6.6c-4.3-2.6-8.5-5.6-12.3-8.9C60.5,55.6,53.5,48.1,47.7,39.9z"/>
	</g>
</g>
</svg>
