<?xml version="1.0" encoding="utf-8"?>
<!-- Generator: Adobe Illustrator 25.1.0, SVG Export Plug-In . SVG Version: 6.00 Build 0)  -->
<svg version="1.1" id="Calque_1" xmlns="http://www.w3.org/2000/svg" xmlns:xlink="http://www.w3.org/1999/xlink" x="0px" y="0px"
	 viewBox="0 0 194.3 171.1" style="enable-background:new 0 0 194.3 171.1;" xml:space="preserve">
<style type="text/css">
	.st0{fill:#FFF9CF;}
	.st1{fill:#FED72F;}
	.st2{fill:#55742A;}
	.st3{font-family:'KGHAPPYSolid';}
	.st4{font-size:32.4993px;}
	.st5{font-family:'ComicNeue-Regular';}
	.st6{font-size:19.7182px;}
	.st7{letter-spacing:7.7;}
	.st8{fill:#FAC100;}
	.st9{fill:#FFFFFF;}
</style>
<path class="st0" d="M145.9,113.3c0,0,26.3-64.9-19.9-76s-71.9,5.3-91.2,33.3s13.4,94.7,59,81.2
	C139.5,138.4,145.9,113.3,145.9,113.3z"/>
<text transform="matrix(1 0 0 1 7.2703 138.8635)" class="st2 st3 st4">BANANES</text>
<text transform="matrix(1.04 0 0 1 43.0072 163.4387)" class="st5 st6 st7">EXPORT</text>
<g>
	<path class="st8" d="M28.5,9.7c0,0,15.9,26.3,29.6,35.7s44,27.3,71.5,13.4s26-19.4,29.1-18.1s3.7,8.3-2.2,24.8
		c-4.2,11.7-21.6,37.4-59.4,35.9C59.3,100,39.5,76.9,32.8,62.1S27.1,27,27.1,27l-12-11.1L28.5,9.7z"/>
	<g>
		<path class="st9" d="M38.7,39.9c3,4,6.4,7.9,9.9,11.5c3.5,3.6,7.2,7.1,11.1,10.3C67.4,68,76,73.5,85.6,76.8
			c4.8,1.6,9.7,2.7,14.7,2.9c2.5,0.2,5,0,7.5-0.1l3.7-0.6c0.6-0.1,1.2-0.2,1.8-0.4l1.8-0.4c0.6-0.2,1.2-0.3,1.8-0.5l1.8-0.6l1.8-0.6
			c0.6-0.2,1.2-0.4,1.8-0.7l3.4-1.6c0.6-0.2,1.1-0.6,1.7-0.9l1.6-1c2.2-1.2,4.2-2.7,6.3-4.2c1.1-0.7,2-1.6,3-2.4l2.9-2.4l-2.8,2.5
			c-1,0.8-1.9,1.7-2.9,2.4c-2,1.5-4,3.1-6.2,4.4l-1.6,1c-0.5,0.3-1.1,0.7-1.7,0.9l-3.4,1.7c-0.6,0.3-1.2,0.5-1.8,0.7l-1.8,0.7
			l-1.8,0.7c-0.6,0.2-1.2,0.3-1.8,0.5l-1.8,0.5c-0.6,0.2-1.2,0.3-1.9,0.4l-3.8,0.6c-2.5,0.2-5.1,0.4-7.6,0.2
			c-5.1-0.3-10.1-1.3-15-2.9c-4.8-1.7-9.4-3.9-13.8-6.6c-4.3-2.6-8.5-5.6-12.3-8.9C51.4,55.6,44.5,48.1,38.7,39.9z"/>
	</g>
</g>
</svg>
